# xmcd
#
# Track frame offsets:
#	150
#	20813
#	42418
#	58501
#	71076
#	86126
#	100224
#	117477
#	133155
#	149655
#	166588
#	182688
#	197531
#	212041
#	227156
#	241999
#	256364
#	272227
#	289602
#	302640
#
# Disc length: 4231 seconds
#
# Revision: 1
# Processed by: cddbd v1.5.2PL0 Copyright (c) Steve Scherf et al.
# Submitted via: audiograbber 1.83.01
#
DISCID=31108514
DTITLE=Various Artist - Halland's Country Hits Volume 1
DYEAR=1900
DGENRE=
TTITLE0=Reba McEntire - Fallin' Out Of Love
TTITLE1=Reba McEntire - Fancy
TTITLE2=Reba McEntire - For My Broken Heart
TTITLE3=Reba McEntire - Have I Got A Deal For You
TTITLE4=Reba McEntire - I Know How He Feels
TTITLE5=Reba McEntire - It's Your Call
TTITLE6=Reba McEntire - New Fool At An Old Game
TTITLE7=Reba McEntire - One Promise Too Late
TTITLE8=Reba McEntire - Only In My Mind
TTITLE9=Reba McEntire - Rumor Has It
TTITLE10=Reba McEntire - Somebody Should Leave
TTITLE11=Reba McEntire - Take It Back
TTITLE12=Reba McEntire - The Greatest Man I Never Knew
TTITLE13=Reba McEntire with Vince Gill - The Heart Won't Lie
TTITLE14=Reba McEntire - The Last One To Know
TTITLE15=Reba McEntire - Walk On
TTITLE16=Reba McEntire - What Am I Gonna Do About You
TTITLE17=Reba McEntire - You Lie
TTITLE18=Reba McEntire - You're The First time I've Thought
TTITLE19=Ronnie Milsap - A Woman In Love
EXTD=
EXTT0=
EXTT1=
EXTT2=
EXTT3=
EXTT4=
EXTT5=
EXTT6=
EXTT7=
EXTT8=
EXTT9=
EXTT10=
EXTT11=
EXTT12=
EXTT13=
EXTT14=
EXTT15=
EXTT16=
EXTT17=
EXTT18=
EXTT19=
PLAYORDER=
